<?xml version='1.0' encoding='utf-8'?>
<svg xmlns="http://www.w3.org/2000/svg" width="91.44mm" height="91.44mm" version="1.1" style="shape-rendering:geometricPrecision; text-rendering:geometricPrecision; image-rendering:optimizeQuality; fill-rule:evenodd; clip-rule:evenodd" viewBox="0 0 177.1 177.1"> <defs> <style type="text/css">  .fil0 {fill:#F0F0F0} .fil1 {fill:#011627;fill-rule:nonzero}  </style> </defs> <g id="Camada_x0020_1"> <metadata id="CorelCorpID_0Corel-Layer"/> <polygon class="fil0" points="177.1,177.1 -0,177.1 -0,0 177.1,0 "/> <path class="fil1" d="M51.45 124.09l25.25 0 0 -17.9c0,-3.26 1.33,-6.22 3.48,-8.37 2.15,-2.15 5.11,-3.48 8.36,-3.48 3.26,0 6.22,1.33 8.37,3.48 2.15,2.15 3.48,5.11 3.48,8.37l0 17.9 25.25 0 0 -34.67 -37.77 -35.78 -36.42 35.76 0 34.68zm26.89 3.28l-28.53 0c-0.91,0 -1.64,-0.73 -1.64,-1.64l0 -37.01 0.01 0c0,-0.42 0.16,-0.85 0.49,-1.17l38.02 -37.33c0.62,-0.64 1.65,-0.66 2.3,-0.04l39.34 37.27c0.37,0.3 0.6,0.76 0.6,1.27l0 37.01c0,0.91 -0.73,1.64 -1.64,1.64l-28.53 0c-0.91,0 -1.64,-0.73 -1.64,-1.64l0 -19.54c0,-2.35 -0.96,-4.49 -2.52,-6.05 -1.55,-1.55 -3.69,-2.52 -6.05,-2.52 -2.35,0 -4.49,0.96 -6.05,2.52 -1.55,1.55 -2.52,3.69 -2.52,6.05l0 19.54c0,0.91 -0.74,1.64 -1.64,1.64z"/> </g> </svg>